<svg width="79" height="129" viewBox="0 0 79 129" fill="none" xmlns="http://www.w3.org/2000/svg">
<rect width="79" height="129" fill="black"/>
<rect width="1440" height="1024" transform="translate(-1222 -459)" fill="url(#paint0_linear_0_1)"/>
<path d="M77.1085 39H2.10853C-0.785438 41.6057 -0.619021 42.9046 2.10853 45H77.1085C79.1797 43.1356 79.703 41.9427 77.1085 39Z" fill="white"/>
<path fill-rule="evenodd" clip-rule="evenodd" d="M2.60853 47.5H14.6085V63L12.1085 83C12.0378 86.0887 12.0731 87.6653 12.6085 89.5C13.2121 91.2543 13.7606 91.9023 15.1085 92.5H17.1085C18.4087 91.3913 18.7718 90.7255 19.1085 89.5C19.7039 86.9682 19.7365 85.5436 19.6085 83L17.6085 63V47.5H76.1085V129H2.10853V47.5H2.60853ZM25.1085 112.5V61H70.1085V112.5H25.1085Z" fill="white"/>
<path fill-rule="evenodd" clip-rule="evenodd" d="M3.60854 36.5H7.10853H72.6085H75.6085C71.7934 14.582 65.0788 6.84268 45.1085 0.999997C40.6031 0.348591 38.3993 0.332936 35.1085 0.999997C15.1897 6.76985 7.90354 14.1291 3.60854 36.5ZM36.1085 4C16.0955 8.16726 10.7434 16.7542 6.60853 34.5H73.1085C68.8008 18.7242 66.1602 10.0035 44.1085 4C40.9828 3.49372 39.2348 3.45636 36.1085 4Z" fill="white"/>
<path d="M77.1085 39H2.10853C-0.785438 41.6057 -0.619021 42.9046 2.10853 45H77.1085C79.1797 43.1356 79.703 41.9427 77.1085 39Z" stroke="white"/>
<path fill-rule="evenodd" clip-rule="evenodd" d="M2.60853 47.5H14.6085V63L12.1085 83C12.0378 86.0887 12.0731 87.6653 12.6085 89.5C13.2121 91.2543 13.7606 91.9023 15.1085 92.5H17.1085C18.4087 91.3913 18.7718 90.7255 19.1085 89.5C19.7039 86.9682 19.7365 85.5436 19.6085 83L17.6085 63V47.5H76.1085V129H2.10853V47.5H2.60853ZM25.1085 112.5V61H70.1085V112.5H25.1085Z" stroke="white"/>
<path fill-rule="evenodd" clip-rule="evenodd" d="M3.60854 36.5H7.10853H72.6085H75.6085C71.7934 14.582 65.0788 6.84268 45.1085 0.999997C40.6031 0.348591 38.3993 0.332936 35.1085 0.999997C15.1897 6.76985 7.90354 14.1291 3.60854 36.5ZM36.1085 4C16.0955 8.16726 10.7434 16.7542 6.60853 34.5H73.1085C68.8008 18.7242 66.1602 10.0035 44.1085 4C40.9828 3.49372 39.2348 3.45636 36.1085 4Z" stroke="white"/>
<defs>
<linearGradient id="paint0_linear_0_1" x1="720" y1="0" x2="720" y2="1024" gradientUnits="userSpaceOnUse">
<stop stop-color="#022C22"/>
<stop offset="1" stop-color="#2DD4BF"/>
</linearGradient>
</defs>
</svg>
