<svg width="30" height="30" fill="none" viewBox="0 0 30 30" xmlns="http://www.w3.org/2000/svg">
<path d="M27.286 1.18828H2.71411C2.31007 1.18828 1.92258 1.34878 1.63688 1.63448C1.35118 1.92018 1.19067 2.30767 1.19067 2.71172V27.2859C1.19067 27.69 1.35118 28.0775 1.63688 28.3632C1.92258 28.6489 2.31007 28.8094 2.71411 28.8094H15.9375V18.1148H12.3422V13.9453H15.9375V10.8703C15.9375 7.30312 18.1172 5.36015 21.3 5.36015C22.3741 5.35632 23.4476 5.41109 24.5157 5.52422V9.25312H22.3149C20.5829 9.25312 20.2477 10.0758 20.2477 11.2828V13.9453H24.375L23.8383 18.1148H20.2477V28.8117H27.279C27.6828 28.8111 28.0699 28.6504 28.3555 28.3648C28.6411 28.0793 28.8018 27.6921 28.8024 27.2883V2.71406C28.803 2.31083 28.6438 1.9238 28.3595 1.63779C28.0753 1.35179 27.6892 1.19014 27.286 1.18828Z" fill="black"/>
</svg>
