<svg width="58" height="173" viewBox="0 0 58 173" fill="none" xmlns="http://www.w3.org/2000/svg">
<rect width="58" height="173" fill="black"/>
<rect width="1440" height="1024" transform="translate(-662 -223)" fill="url(#paint0_linear_0_1)"/>
<path d="M38.0819 23.5H27.5819V92.5H38.0819V23.5Z" fill="white"/>
<path d="M41.0819 104H25.0819C24.2457 100.467 24.5734 98.7516 27.5819 96.5H38.0819C41.3723 98.8868 41.5195 100.659 41.0819 104Z" fill="white"/>
<path d="M41.0819 108H25.0819V160.5H41.0819V108Z" fill="white"/>
<path d="M25.0819 164.5L23.0819 168.5C24.6276 172.402 25.3444 172.793 26.5819 173H39.0819C41.0437 171.732 41.9023 170.823 42.5819 168.5L41.0819 164.5H25.0819Z" fill="white"/>
<path d="M38.0819 20H27.5819C21.9329 11.5947 16.1007 11.7947 0.0818977 22.5C-0.643584 11.6151 3.32383 6.75855 17.0819 0H38.0819C36.5819 0 40.0819 4 40.0819 4L44.5819 6H48.5819V3C51.4152 3.16667 57.0819 3.4 57.0819 3V20H48.5819V16.5L47.0819 15H41.5819L38.0819 20Z" fill="white"/>
<path d="M38.0819 23.5H27.5819V92.5H38.0819V23.5Z" stroke="white"/>
<path d="M41.0819 104H25.0819C24.2457 100.467 24.5734 98.7516 27.5819 96.5H38.0819C41.3723 98.8868 41.5195 100.659 41.0819 104Z" stroke="white"/>
<path d="M41.0819 108H25.0819V160.5H41.0819V108Z" stroke="white"/>
<path d="M25.0819 164.5L23.0819 168.5C24.6276 172.402 25.3444 172.793 26.5819 173H39.0819C41.0437 171.732 41.9023 170.823 42.5819 168.5L41.0819 164.5H25.0819Z" stroke="white"/>
<path d="M38.0819 20H27.5819C21.9329 11.5947 16.1007 11.7947 0.0818977 22.5C-0.643584 11.6151 3.32383 6.75855 17.0819 0H38.0819C36.5819 0 40.0819 4 40.0819 4L44.5819 6H48.5819V3C51.4152 3.16667 57.0819 3.4 57.0819 3V20H48.5819V16.5L47.0819 15H41.5819L38.0819 20Z" stroke="white"/>
<defs>
<linearGradient id="paint0_linear_0_1" x1="720" y1="0" x2="720" y2="1024" gradientUnits="userSpaceOnUse">
<stop stop-color="#022C22"/>
<stop offset="1" stop-color="#2DD4BF"/>
</linearGradient>
</defs>
</svg>
