<svg width="105" height="124" viewBox="0 0 105 124" fill="none" xmlns="http://www.w3.org/2000/svg">
<rect width="105" height="124" fill="black"/>
<rect width="1440" height="1024" transform="translate(-567 -400)" fill="url(#paint0_linear_0_1)"/>
<path d="M31.2397 19.9441H23.4298L0 124H7.80992L13.8843 95.3846H42.5207L37.314 124H44.2562L50.3306 95.3846L47.7273 81.5105L44.2562 87.5804H15.6198L19.9587 68.5035H44.2562L42.5207 60.6993H21.6942L26.0331 42.4895H37.314L35.5785 33.8182H27.7686L31.2397 19.9441Z" fill="white"/>
<path d="M78.9669 16.4755H21.6942C21.1157 15.6084 19.9587 12.4867 19.9587 6.93706H80.7025V13.8741L78.9669 16.4755Z" fill="white"/>
<path d="M21.6942 3.46853L23.4298 0H78.9669L80.7025 3.46853H21.6942Z" fill="white"/>
<path fill-rule="evenodd" clip-rule="evenodd" d="M42.5207 19.9441H35.5785H34.7107L60.7438 124H68.5537L60.7438 95.3846H90.2479L98.0579 124H105L80.7025 19.9441H72.8926L75.4959 33.8182H45.9917L42.5207 19.9441ZM47.7273 42.4895L52.0661 59.8322H80.7025L77.2314 42.4895H47.7273ZM83.3058 68.5035H54.6694L59.0083 87.5804H88.5124L83.3058 68.5035Z" fill="white"/>
<path d="M31.2397 19.9441H23.4298L0 124H7.80992L13.8843 95.3846H42.5207L37.314 124H44.2562L50.3306 95.3846L47.7273 81.5105L44.2562 87.5804H15.6198L19.9587 68.5035H44.2562L42.5207 60.6993H21.6942L26.0331 42.4895H37.314L35.5785 33.8182H27.7686L31.2397 19.9441Z" stroke="white"/>
<path d="M78.9669 16.4755H21.6942C21.1157 15.6084 19.9587 12.4867 19.9587 6.93706H80.7025V13.8741L78.9669 16.4755Z" stroke="white"/>
<path d="M21.6942 3.46853L23.4298 0H78.9669L80.7025 3.46853H21.6942Z" stroke="white"/>
<path fill-rule="evenodd" clip-rule="evenodd" d="M42.5207 19.9441H35.5785H34.7107L60.7438 124H68.5537L60.7438 95.3846H90.2479L98.0579 124H105L80.7025 19.9441H72.8926L75.4959 33.8182H45.9917L42.5207 19.9441ZM47.7273 42.4895L52.0661 59.8322H80.7025L77.2314 42.4895H47.7273ZM83.3058 68.5035H54.6694L59.0083 87.5804H88.5124L83.3058 68.5035Z" stroke="white"/>
<defs>
<linearGradient id="paint0_linear_0_1" x1="720" y1="0" x2="720" y2="1024" gradientUnits="userSpaceOnUse">
<stop stop-color="#022C22"/>
<stop offset="1" stop-color="#2DD4BF"/>
</linearGradient>
</defs>
</svg>
