<svg width="344" height="27" viewBox="0 0 344 27" fill="none" xmlns="http://www.w3.org/2000/svg">
<rect width="344" height="27" fill="black"/>
<rect width="1440" height="1024" transform="translate(-910 -296)" fill="url(#paint0_linear_0_1)"/>
<path d="M121 3H0V27H9V20.5H11.5V27H17.5V20.5H20.5V27H26.5V20.5H29V27H35.5V20.5H38V27H43.5V20.5H46.5V27H52.5V20.5H55.5V27H61V20.5H64.5V27H69.5V20.5H72.5V27H78.5V20.5H81.5V27H87V20.5H90V27H96V20.5H98.5V27H104.5V20.5H107.5V27H113V20.5H116.5V27H122.5V20.5H125V27H131V20.5H133V27H139V20.5H142V27H148V20.5H151V27H156.5V20.5H159.5V27H165V20.5H168V27H174V20.5H176.5V27H183V20.5H186V27H191.5V20.5H194V27H200.5V20.5H203V27H209V20.5H211.5V27H217.5V20.5H220V27H226V20.5H229V27H234.5V20.5H237.5V27H243V20.5H246V27H251.5V20.5H255V27H261V20.5H264V27H269.5V20.5H272.5V27H278.5V20.5H281V27H287V20.5H289.5V27H295.5V20.5H298.5V27H304V20.5H307V27H313V20.5H316V27H322.5V20.5H325V27H331V20.5H333.5V27H344V3H221.5C222.58 11.0921 220.947 13.9742 214.5 16.5H128.5C123.953 15.0645 122.687 11.2159 121 3Z" fill="white"/>
<path fill-rule="evenodd" clip-rule="evenodd" d="M131.5 0H211.5C212.937 1.26134 214.049 2.41789 214.832 3.5C216.639 7.12554 215.779 9.91193 211.5 13H131.5C126.629 8.29046 126.108 5.48328 131.5 0ZM166 6L172 2.5L177.5 6L172 9.5L166 6Z" fill="white"/>
<defs>
<linearGradient id="paint0_linear_0_1" x1="720" y1="0" x2="720" y2="1024" gradientUnits="userSpaceOnUse">
<stop stop-color="#022C22"/>
<stop offset="1" stop-color="#2DD4BF"/>
</linearGradient>
</defs>
</svg>
