<svg width="18" height="69" viewBox="0 0 18 69" fill="none" xmlns="http://www.w3.org/2000/svg">
<rect width="18" height="69" fill="black"/>
<rect width="1440" height="1024" transform="translate(-924 -443)" fill="url(#paint0_linear_0_1)"/>
<path d="M56.0819 -80.5H45.5819V-11.5H56.0819V-80.5Z" fill="white"/>
<path d="M59.0819 0H43.0819C42.2457 -3.53319 42.5734 -5.24837 45.5819 -7.5H56.0819C59.3723 -5.11324 59.5195 -3.34073 59.0819 0Z" fill="white"/>
<path d="M59.0819 4H43.0819V56.5H59.0819V4Z" fill="white"/>
<path d="M43.0819 60.5L41.0819 64.5C42.6276 68.402 43.3444 68.7927 44.5819 69H57.0819C59.0437 67.7324 59.9023 66.823 60.5819 64.5L59.0819 60.5H43.0819Z" fill="white"/>
<path d="M56.0819 -84H45.5819C39.9329 -92.4053 34.1007 -92.2053 18.0819 -81.5C17.3564 -92.3849 21.3238 -97.2414 35.0819 -104H56.0819C54.5819 -104 58.0819 -100 58.0819 -100L62.5819 -98H66.5819V-101C69.4152 -100.833 75.0819 -100.6 75.0819 -101V-84H66.5819V-87.5L65.0819 -89H59.5819L56.0819 -84Z" fill="white"/>
<path d="M56.0819 -80.5H45.5819V-11.5H56.0819V-80.5Z" stroke="white"/>
<path d="M59.0819 0H43.0819C42.2457 -3.53319 42.5734 -5.24837 45.5819 -7.5H56.0819C59.3723 -5.11324 59.5195 -3.34073 59.0819 0Z" stroke="white"/>
<path d="M59.0819 4H43.0819V56.5H59.0819V4Z" stroke="white"/>
<path d="M43.0819 60.5L41.0819 64.5C42.6276 68.402 43.3444 68.7927 44.5819 69H57.0819C59.0437 67.7324 59.9023 66.823 60.5819 64.5L59.0819 60.5H43.0819Z" stroke="white"/>
<path d="M56.0819 -84H45.5819C39.9329 -92.4053 34.1007 -92.2053 18.0819 -81.5C17.3564 -92.3849 21.3238 -97.2414 35.0819 -104H56.0819C54.5819 -104 58.0819 -100 58.0819 -100L62.5819 -98H66.5819V-101C69.4152 -100.833 75.0819 -100.6 75.0819 -101V-84H66.5819V-87.5L65.0819 -89H59.5819L56.0819 -84Z" stroke="white"/>
<path d="M0 3.5H17L13.5 0H11.5V2H6.5V0H4L0 3.5Z" fill="white"/>
<path d="M0 10.5V6H18V10.5H0Z" fill="white"/>
<path d="M13 12.5H4.5V21.5L10.5 17.5V19L4.5 25V31L10.5 26V29L4.5 34.5V40.5L10.5 36V38.5L4.5 44.5V50L10.5 46V48L4.5 54V57.5L9 68.5L13 57.5V12.5Z" fill="white"/>
<path d="M0 3.5H17L13.5 0H11.5V2H6.5V0H4L0 3.5Z" stroke="white"/>
<path d="M0 10.5V6H18V10.5H0Z" stroke="white"/>
<path d="M13 12.5H4.5V21.5L10.5 17.5V19L4.5 25V31L10.5 26V29L4.5 34.5V40.5L10.5 36V38.5L4.5 44.5V50L10.5 46V48L4.5 54V57.5L9 68.5L13 57.5V12.5Z" stroke="white"/>
<path d="M169.651 107.717C168.171 104.278 167.952 102.249 169.651 98.2832H13.1802C7.34399 102.173 7.87551 104.22 13.1802 107.717H169.651Z" fill="white"/>
<path d="M192.94 83.0442C165.556 98.5556 168.126 107.117 193.667 122.23L192.94 83.0442Z" fill="white"/>
<path d="M197.306 122.23V83.0442L279.544 62V64.177H281V69.9823H279.544V74.3363H281V80.8673H279.544V84.4956H281V90.3009H279.544V94.6549H281V100.46H279.544V104.814H281V111.345H279.544V115.699H281V121.504L213.317 113.522V115.699L281 124.407V131.664L213.317 121.504V122.956L281 134.566V144L197.306 122.23Z" fill="white"/>
<path d="M169.651 107.717C168.171 104.278 167.952 102.249 169.651 98.2832H13.1802C7.34399 102.173 7.87551 104.22 13.1802 107.717H169.651Z" stroke="white"/>
<path d="M192.94 83.0442C165.556 98.5556 168.126 107.117 193.667 122.23L192.94 83.0442Z" stroke="white"/>
<path d="M197.306 122.23V83.0442L279.544 62V64.177H281V69.9823H279.544V74.3363H281V80.8673H279.544V84.4956H281V90.3009H279.544V94.6549H281V100.46H279.544V104.814H281V111.345H279.544V115.699H281V121.504L213.317 113.522V115.699L281 124.407V131.664L213.317 121.504V122.956L281 134.566V144L197.306 122.23Z" stroke="white"/>
<defs>
<linearGradient id="paint0_linear_0_1" x1="720" y1="0" x2="720" y2="1024" gradientUnits="userSpaceOnUse">
<stop stop-color="#022C22"/>
<stop offset="1" stop-color="#2DD4BF"/>
</linearGradient>
</defs>
</svg>
