<svg width="220" height="31" viewBox="0 0 220 31" fill="none" xmlns="http://www.w3.org/2000/svg">
<rect width="220" height="31" fill="black"/>
<rect width="1440" height="1024" transform="translate(-1081 -665)" fill="url(#paint0_linear_0_1)"/>
<path d="M-8.22711e-07 12.1786L-5.32342e-07 18.8214L18.9848 23.25L30.1523 18.8214L102.741 18.8214L102.741 12.1786L30.1523 12.1786L18.9848 7.75001L-8.22711e-07 12.1786Z" fill="white"/>
<path fill-rule="evenodd" clip-rule="evenodd" d="M107.208 7.75L107.208 23.25L118.376 31L208.832 31L220 21.0357L220 7.75L208.832 4.08386e-07L118.376 4.36238e-06L107.208 7.75ZM125.076 12.1786L125.076 5.53572L164.162 5.53572L203.249 5.53571L203.249 12.1786L125.076 12.1786ZM125.076 18.8214L125.076 25.4643L203.249 25.4643L203.249 18.8214L125.076 18.8214Z" fill="white"/>
<path d="M-8.22711e-07 12.1786L-5.32342e-07 18.8214L18.9848 23.25L30.1523 18.8214L102.741 18.8214L102.741 12.1786L30.1523 12.1786L18.9848 7.75001L-8.22711e-07 12.1786Z" stroke="white"/>
<path fill-rule="evenodd" clip-rule="evenodd" d="M107.208 7.75L107.208 23.25L118.376 31L208.832 31L220 21.0357L220 7.75L208.832 4.08386e-07L118.376 4.36238e-06L107.208 7.75ZM125.076 12.1786L125.076 5.53572L164.162 5.53572L203.249 5.53571L203.249 12.1786L125.076 12.1786ZM125.076 18.8214L125.076 25.4643L203.249 25.4643L203.249 18.8214L125.076 18.8214Z" stroke="white"/>
<defs>
<linearGradient id="paint0_linear_0_1" x1="720" y1="0" x2="720" y2="1024" gradientUnits="userSpaceOnUse">
<stop stop-color="#022C22"/>
<stop offset="1" stop-color="#2DD4BF"/>
</linearGradient>
</defs>
</svg>
