<svg width="205" height="70" viewBox="0 0 205 70" fill="none" xmlns="http://www.w3.org/2000/svg">
<path fill-rule="evenodd" clip-rule="evenodd" d="M74.5512 0H10.2712C6.10017 1.08021 2.41117 6.99783 4.76148 14.0442C9.16075 14.3887 10.9508 14.9736 13.3322 16.4867L10.2712 53.1239C9.01096 53.6267 7.80484 53.7761 6.66416 53.9174C4.55891 54.1782 2.67656 54.4114 1.08834 56.7876C-1.36042 60.4513 1.08834 64.7257 1.08834 64.7257C3.3101 67.6655 4.25015 68.1343 5.85796 68.9362L5.98586 69H63.5318L65.9806 67.1681L77 3.0531L74.5512 0ZM21.9028 50.0708L25.576 17.708C27.0407 14.5255 28.3668 13.1751 31.6979 11.6018H52.5124C55.6335 13.6848 56.6887 15.0248 57.4099 17.708L52.5124 51.292C51.0327 54.7969 49.7308 55.807 47.0026 56.7876H28.0247C24.8461 55.2068 23.4789 53.7718 21.9028 50.0708ZM57.4099 53L62 18.5L67 17.708L62 52L57.4099 53Z" fill="white"/>
<path d="M81.5082 1L71.1665 66.3363L77.2498 70L83.3332 63.8938L90.0248 67.5575L94.2832 61.4513L101.583 66.3363L106.45 59.0089L113.142 63.8938L119.833 56.5664L125.917 61.4513L132 54.7345L138.692 59.0089L144.167 52.292L150.858 56.5664L155.725 49.8496L163.025 54.7345L169.108 48.6283L174.583 52.292L180.667 46.1858L186.75 49.8496L192.833 43.7434L198.917 47.4071L205 41.9115V10.7699L81.5082 1Z" fill="white"/>
</svg>
